# File created by Blade
# Date/Time:  Thu Jan 22 19:13:14 2015
# Frame Rate: 120.000 fps
#------------------------------------------------------
:FULLY-SPECIFIED
:DEGREES
2659
root 9.707410 33.686520 -2.456924 13.129319 -8.239104 -6.857033
RightUpLeg -31.280334 -11.446882 -3.377780
RightLeg 44.013258 -0.000000 -0.000000
RightFoot -4.653047 7.184705 18.359227
RightToeBase -8.656105 -0.000000 0.000000
LeftUpLeg -16.372660 15.235415 12.629461
LeftLeg 17.642535 -0.000000 -0.000000
LeftFoot -16.948754 11.312894 -17.860845
LeftToeBase 11.905209 -0.000000 -0.000000
Spine -2.637388 -6.863257 4.768816
RightShoulder -22.317480 -15.472146 -16.716609
RightArm 12.783904 35.135575 58.276117
RightForeArm 9.520154 0.000000 30.708893
RightHand 18.933992 -0.000000 -5.070166
RightHandThumb1 -24.326973 -0.000000 -32.862282
LeftShoulder -22.147758 8.503549 25.174141
LeftArm 7.948203 -25.301765 -61.204416
LeftForeArm 2.556204 -0.000000 5.637423
LeftHand -2.614491 0.000000 9.136137
LeftHandThumb1 -26.253704 0.000000 33.147579
Head -28.931092 7.718960 5.244311
2660
root 9.655241 33.676427 -2.431410 13.025405 -8.114191 -6.571922
RightUpLeg -30.805077 -11.122400 -3.461159
RightLeg 43.552791 -0.000000 -0.000000
RightFoot -4.819763 7.023638 18.303680
RightToeBase -8.150046 -0.000000 0.000000
LeftUpLeg -16.045643 15.049556 12.471377
LeftLeg 17.102241 -0.000000 -0.000000
LeftFoot -16.722878 11.388284 -17.835511
LeftToeBase 11.873126 -0.000000 -0.000000
Spine -2.762947 -6.884295 4.586215
RightShoulder -22.371944 -15.537889 -16.804385
RightArm 12.831976 35.202012 58.052939
RightForeArm 9.579506 -0.000000 30.593414
RightHand 18.868346 -0.000000 -5.209877
RightHandThumb1 -24.326973 -0.000000 -32.862282
LeftShoulder -22.171897 8.558247 25.121514
LeftArm 7.986964 -25.318997 -61.001192
LeftForeArm 2.650279 -0.000000 5.716867
LeftHand -2.798291 0.000000 9.195829
LeftHandThumb1 -26.253704 0.000000 33.147579
Head -28.846094 7.588231 5.112222
2661
root 9.599225 33.663200 -2.409256 12.935750 -7.959607 -6.291405
RightUpLeg -30.317422 -10.804603 -3.557916
RightLeg 43.031978 -0.000000 -0.000000
RightFoot -4.987282 6.849335 18.194968
RightToeBase -7.808304 -0.000000 0.000000
LeftUpLeg -15.786957 14.868933 12.321129
LeftLeg 16.643834 -0.000000 -0.000000
LeftFoot -16.500298 11.437632 -17.763711
LeftToeBase 11.766501 -0.000000 -0.000000
Spine -2.904831 -6.909992 4.434882
RightShoulder -22.363507 -15.457349 -17.022627
RightArm 12.627470 35.250560 57.761092
RightForeArm 9.687027 -0.000000 30.496777
RightHand 18.908879 -0.000000 -5.042020
RightHandThumb1 -24.326973 -0.000000 -32.862282
LeftShoulder -22.244543 8.688980 25.019170
LeftArm 8.166932 -25.355626 -60.857354
LeftForeArm 2.670932 -0.000000 5.773279
LeftHand -2.862390 -0.000000 9.133265
LeftHandThumb1 -26.253704 0.000000 33.147579
Head -28.740257 7.391492 4.945699
2662
root 9.536452 33.647534 -2.382845 12.824129 -7.833853 -6.000617
RightUpLeg -29.773836 -10.297305 -3.722121
RightLeg 42.464899 -0.000000 -0.000000
RightFoot -5.149949 6.544365 18.187079
RightToeBase -7.872607 -0.000000 0.000000
LeftUpLeg -15.470189 14.707313 12.177719
LeftLeg 16.150349 -0.000000 -0.000000
LeftFoot -16.290319 11.473034 -17.714323
LeftToeBase 11.772204 -0.000000 -0.000000
Spine -3.028183 -6.922167 4.256354
RightShoulder -22.410170 -15.532576 -17.140884
RightArm 12.681565 35.352745 57.599042
RightForeArm 9.684808 -0.000000 30.356952
RightHand 18.921335 -0.000000 -5.025261
RightHandThumb1 -24.326973 -0.000000 -32.862282
LeftShoulder -22.310993 8.737210 24.943059
LeftArm 8.227118 -25.617501 -60.669800
LeftForeArm 2.978273 -0.000000 5.852595
LeftHand -2.737052 -0.000000 8.965091
LeftHandThumb1 -26.253704 0.000000 33.147579
Head -28.617524 7.231220 4.738697
2663
root 9.469399 33.630296 -2.356634 12.710779 -7.703338 -5.701798
RightUpLeg -29.211997 -9.816029 -3.891446
RightLeg 41.855827 -0.000000 -0.000000
RightFoot -5.308271 6.207875 18.041074
RightToeBase -7.656334 -0.000000 0.000000
LeftUpLeg -15.179849 14.575205 12.026519
LeftLeg 15.699979 -0.000000 -0.000000
LeftFoot -16.053594 11.467664 -17.607788
LeftToeBase 11.811866 -0.000000 -0.000000
Spine -3.158789 -6.909897 4.073369
RightShoulder -22.454379 -15.637415 -17.255451
RightArm 12.742501 35.487696 57.457384
RightForeArm 9.767124 0.000000 30.216554
RightHand 18.924644 -0.000000 -5.109789
RightHandThumb1 -24.326973 -0.000000 -32.862282
LeftShoulder -22.350472 8.789491 24.856378
LeftArm 8.273369 -25.828209 -60.483582
LeftForeArm 3.021477 -0.000000 6.016441
LeftHand -2.771157 -0.000000 9.020671
LeftHandThumb1 -26.253704 0.000000 33.147579
Head -28.489808 7.031051 4.497508
2664
root 9.398571 33.608158 -2.330319 12.591016 -7.595918 -5.372290
RightUpLeg -28.649848 -9.257220 -4.110367
RightLeg 41.270719 -0.000000 -0.000000
RightFoot -5.473887 5.764622 17.684454
RightToeBase -7.362079 -0.000000 0.000000
LeftUpLeg -14.878661 14.430934 11.854815
LeftLeg 15.258981 -0.000000 -0.000000
LeftFoot -15.848531 11.487859 -17.477132
LeftToeBase 11.827805 -0.000000 -0.000000
Spine -3.296531 -6.921529 3.855273
RightShoulder -22.411858 -15.649499 -17.438583
RightArm 12.686935 35.617956 57.279665
RightForeArm 9.886332 0.000000 30.054616
RightHand 18.853489 -0.000000 -4.963375
RightHandThumb1 -24.326973 -0.000000 -32.862282
LeftShoulder -22.476626 8.906366 24.761360
LeftArm 8.405781 -26.093646 -60.332578
LeftForeArm 3.196850 -0.000000 6.163859
LeftHand -2.750542 -0.000000 9.003579
LeftHandThumb1 -26.253704 0.000000 33.147579
Head -28.304365 6.863467 4.234219
2665
root 9.322776 33.582635 -2.299973 12.453197 -7.512073 -5.038908
RightUpLeg -28.055007 -8.634641 -4.347381
RightLeg 40.660892 -0.000000 -0.000000
RightFoot -5.623556 5.277631 17.491262
RightToeBase -7.042214 -0.000000 0.000000
LeftUpLeg -14.543584 14.359157 11.684507
LeftLeg 14.820666 -0.000000 -0.000000
LeftFoot -15.638663 11.460609 -17.366112
LeftToeBase 11.690119 -0.000000 -0.000000
Spine -3.436830 -6.897410 3.610982
RightShoulder -22.372102 -15.695064 -17.597943
RightArm 12.700636 35.785488 57.138638
RightForeArm 9.954367 -0.000000 29.839042
RightHand 18.876433 -0.000000 -4.918889
RightHandThumb1 -24.326973 -0.000000 -32.862282
LeftShoulder -22.515040 8.913411 24.744647
LeftArm 8.323466 -26.426242 -60.133654
LeftForeArm 3.394687 0.000000 6.419138
LeftHand -2.882417 -0.000000 9.005396
LeftHandThumb1 -26.253704 0.000000 33.147579
Head -28.062519 6.679372 3.981600
2666
root 9.240723 33.554461 -2.265266 12.296176 -7.434088 -4.700001
RightUpLeg -27.419613 -7.978433 -4.586560
RightLeg 40.049567 -0.000000 -0.000000
RightFoot -5.893421 4.701961 17.415305
RightToeBase -6.254133 -0.000000 0.000000
LeftUpLeg -14.173158 14.291595 11.529780
LeftLeg 14.377744 -0.000000 -0.000000
LeftFoot -15.441154 11.402791 -17.356218
LeftToeBase 11.554412 -0.000000 -0.000000
Spine -3.569283 -6.822838 3.373130
RightShoulder -22.408856 -15.805659 -17.737950
RightArm 12.808698 35.958912 57.064351
RightForeArm 9.935439 -0.000000 29.626715
RightHand 18.964412 -0.000000 -4.954847
RightHandThumb1 -24.326973 -0.000000 -32.862282
LeftShoulder -22.543350 8.993260 24.675956
LeftArm 8.329453 -26.571153 -59.931099
LeftForeArm 3.322031 0.000000 6.652083
LeftHand -2.889018 -0.000000 9.105519
LeftHandThumb1 -26.253704 0.000000 33.147579
Head -27.819422 6.464210 3.667299
2667
root 9.158146 33.522084 -2.232567 12.148965 -7.386291 -4.312254
RightUpLeg -26.803713 -7.262807 -4.880328
RightLeg 39.431868 -0.000000 -0.000000
RightFoot -6.165103 4.162091 17.171153
RightToeBase -5.823336 -0.000000 0.000000
LeftUpLeg -13.836033 14.239384 11.325835
LeftLeg 13.981780 -0.000000 -0.000000
LeftFoot -15.253502 11.327186 -17.368303
LeftToeBase 11.491770 -0.000000 -0.000000
Spine -3.712117 -6.781947 3.104947
RightShoulder -22.356296 -15.793714 -18.013290
RightArm 12.764863 36.041326 56.971184
RightForeArm 9.992019 -0.000000 29.430976
RightHand 18.960011 0.000000 -4.872010
RightHandThumb1 -24.326973 -0.000000 -32.862282
LeftShoulder -22.668541 9.015014 24.546080
LeftArm 8.359414 -26.737100 -59.633083
LeftForeArm 3.359575 0.000000 6.815019
LeftHand -2.852992 -0.000000 9.041834
LeftHandThumb1 -26.253704 0.000000 33.147579
Head -27.574375 6.297738 3.270192
2668
root 9.069794 33.488256 -2.196831 11.977897 -7.350399 -3.910755
RightUpLeg -26.169843 -6.600414 -5.161209
RightLeg 38.823170 -0.000000 -0.000000
RightFoot -6.372398 3.766855 16.936993
RightToeBase -5.856306 -0.000000 0.000000
LeftUpLeg -13.449310 14.123105 11.133623
LeftLeg 13.564010 -0.000000 -0.000000
LeftFoot -15.074099 11.329063 -17.366049
LeftToeBase 11.412998 -0.000000 -0.000000
Spine -3.844944 -6.689261 2.782291
RightShoulder -22.336551 -15.696847 -18.241356
RightArm 12.643643 36.055693 56.767168
RightForeArm 10.048838 -0.000000 29.195255
RightHand 18.948440 -0.000000 -4.860972
RightHandThumb1 -24.326973 -0.000000 -32.862282
LeftShoulder -22.723361 9.030052 24.498489
LeftArm 8.349036 -26.948265 -59.388818
LeftForeArm 3.449855 0.000000 6.988595
LeftHand -2.858366 -0.000000 9.164724
LeftHandThumb1 -26.253704 0.000000 33.147579
Head -27.290070 6.084504 2.944295
2669
root 8.971348 33.450547 -2.153561 11.796650 -7.299844 -3.526076
RightUpLeg -25.489637 -5.983109 -5.386930
RightLeg 38.183968 -0.000000 -0.000000
RightFoot -6.652216 3.402387 16.388257
RightToeBase -5.673378 -0.000000 0.000000
LeftUpLeg -13.061618 14.141986 10.970471
LeftLeg 13.187702 -0.000000 -0.000000
LeftFoot -14.934449 11.144221 -17.502329
LeftToeBase 11.478126 -0.000000 -0.000000
Spine -4.000801 -6.611708 2.494309
RightShoulder -22.319027 -15.737070 -18.460968
RightArm 12.666824 36.151454 56.703587
RightForeArm 10.078022 -0.000000 29.006443
RightHand 18.813615 -0.000000 -4.943297
RightHandThumb1 -24.326973 -0.000000 -32.862282
LeftShoulder -22.806886 9.124453 24.374623
LeftArm 8.452295 -27.219603 -59.121394
LeftForeArm 3.664315 0.000000 7.135674
LeftHand -2.875115 -0.000000 9.089654
LeftHandThumb1 -26.253704 0.000000 33.147579
Head -26.967250 5.878789 2.574869
